<svg xmlns="http://www.w3.org/2000/svg" viewBox="0 0 640 400" width="640" height="400" font-family="Inter, 'Segoe UI', Arial, sans-serif">
<defs>
  <linearGradient id="bg" x1="0" y1="0" x2="1" y2="1"><stop offset="0" stop-color="#F4F4EF"/><stop offset="1" stop-color="#DFDFD6"/></linearGradient>
  <radialGradient id="glowA" cx="0.85" cy="0.1" r="0.6"><stop offset="0" stop-color="#C8F53B" stop-opacity="0.55"/><stop offset="1" stop-color="#C8F53B" stop-opacity="0"/></radialGradient>
  <radialGradient id="glowB" cx="0.05" cy="0.95" r="0.55"><stop offset="0" stop-color="#ffffff" stop-opacity="0.6"/><stop offset="1" stop-color="#ffffff" stop-opacity="0"/></radialGradient>
  <pattern id="grid" width="32" height="32" patternUnits="userSpaceOnUse"><path d="M32 0H0V32" fill="none" stroke="rgba(17,17,40,0.06)" stroke-width="1"/></pattern>
  <filter id="sh" x="-20%" y="-20%" width="140%" height="160%"><feDropShadow dx="0" dy="14" stdDeviation="14" flood-color="#0b0820" flood-opacity="0.35"/></filter>
  <filter id="shs" x="-20%" y="-20%" width="140%" height="160%"><feDropShadow dx="0" dy="6" stdDeviation="6" flood-color="#0b0820" flood-opacity="0.25"/></filter>
</defs>
<rect width="640" height="400" fill="url(#bg)"/>
<rect width="640" height="400" fill="url(#grid)"/>
<rect width="640" height="400" fill="url(#glowA)"/>
<rect width="640" height="400" fill="url(#glowB)"/>
<g filter="url(#sh)"><rect x="70" y="50" width="500" height="310" rx="18" fill="#fbfbf8"/></g><path d="M88 50 H552 Q570 50 570 68 V84 H70 V68 Q70 50 88 50 Z" fill="#f1f1ee"/><circle cx="92" cy="67" r="5" fill="#C8F53B"/><circle cx="108" cy="67" r="5" fill="#C8F53B"/><circle cx="124" cy="67" r="5" fill="#C8F53B"/><rect x="70" y="84" width="70" height="258" fill="#f6f6f3"/><rect x="90" y="100" width="30" height="30" rx="9" fill="#C8F53B"/><rect x="94" y="150" width="22" height="22" rx="6" fill="#e5e5e2"/><rect x="94" y="188" width="22" height="22" rx="6" fill="#e5e5e2"/><rect x="94" y="226" width="22" height="22" rx="6" fill="#e5e5e2"/><rect x="94" y="264" width="22" height="22" rx="6" fill="#e5e5e2"/><rect x="94" y="302" width="22" height="22" rx="6" fill="#e5e5e2"/><rect x="158" y="100" width="122" height="70" rx="12" fill="#f6f6f3" stroke="#e8e8e5"/><text x="172" y="122" font-size="10" fill="#727270">Revenue</text><text x="172" y="148" font-size="20" font-weight="800" fill="#1f1f1e">8.4L</text><rect x="172" y="156" width="94" height="4" rx="2" fill="#e8e8e5"/><rect x="172" y="156" width="50" height="4" rx="2" fill="#C8F53B"/><rect x="292" y="100" width="122" height="70" rx="12" fill="#f6f6f3" stroke="#e8e8e5"/><text x="306" y="122" font-size="10" fill="#727270">Orders</text><text x="306" y="148" font-size="20" font-weight="800" fill="#1f1f1e">2,190</text><rect x="306" y="156" width="94" height="4" rx="2" fill="#e8e8e5"/><rect x="306" y="156" width="65" height="4" rx="2" fill="#C8F53B"/><rect x="426" y="100" width="122" height="70" rx="12" fill="#f6f6f3" stroke="#e8e8e5"/><text x="440" y="122" font-size="10" fill="#727270">Tasks done</text><text x="440" y="148" font-size="20" font-weight="800" fill="#1f1f1e">96%</text><rect x="440" y="156" width="94" height="4" rx="2" fill="#e8e8e5"/><rect x="440" y="156" width="80" height="4" rx="2" fill="#949492"/><defs><linearGradient id="area" x1="0" y1="0" x2="0" y2="1"><stop offset="0" stop-color="#C8F53B" stop-opacity="0.35"/><stop offset="1" stop-color="#C8F53B" stop-opacity="0"/></linearGradient></defs>
<rect x="158" y="184" width="256" height="160" rx="12" fill="#f6f6f3" stroke="#e8e8e5"/>
<text x="172" y="206" font-size="11" font-weight="700" fill="#1f1f1e">Performance</text>
<path d="M172 320 C200 300 220 270 250 280 C280 290 300 240 330 245 C360 250 375 215 400 205 L400 334 L172 334 Z" fill="url(#area)"/>
<path d="M172 320 C200 300 220 270 250 280 C280 290 300 240 330 245 C360 250 375 215 400 205" fill="none" stroke="#C8F53B" stroke-width="3" stroke-linecap="round"/>
<circle cx="400" cy="205" r="5" fill="#fff" stroke="#C8F53B" stroke-width="3"/>
<rect x="426" y="184" width="130" height="160" rx="12" fill="#f6f6f3" stroke="#e8e8e5"/>
<circle cx="491" cy="250" r="40" fill="none" stroke="#e8e8e5" stroke-width="14"/>
<circle cx="491" cy="250" r="40" fill="none" stroke="#C8F53B" stroke-width="14" stroke-dasharray="160 252" transform="rotate(-90 491 250)" stroke-linecap="round"/>
<circle cx="491" cy="250" r="40" fill="none" stroke="#C8F53B" stroke-width="14" stroke-dasharray="50 252" stroke-dashoffset="-172" transform="rotate(-90 491 250)" stroke-linecap="round"/>
<text x="491" y="256" font-size="16" font-weight="800" fill="#1f1f1e" text-anchor="middle">64%</text>
<rect x="446" y="308" width="90" height="8" rx="4" fill="#e8e8e5"/><rect x="446" y="322" width="60" height="8" rx="4" fill="#e8e8e5"/><g filter="url(#shs)"><rect x="462" y="18" width="150" height="34" rx="17.0" fill="#fbfbf8"/></g><circle cx="480" cy="35.0" r="6" fill="#C8F53B"/><text x="494" y="39.0" font-size="12" font-weight="700" fill="#1f1f1e">Live KPI sync</text>
</svg>